<svg width="12" height="12" viewBox="0 0 12 12" fill="none" xmlns="http://www.w3.org/2000/svg">
<path fill-rule="evenodd" clip-rule="evenodd" d="M5.99664 0C5.44467 0 4.9972 0.447466 4.9972 0.999441V5.00004H1.00001C0.447719 5.00004 0 5.44776 0 6.00005C0 6.55234 0.44772 7.00006 1.00001 7.00006H4.9972V11.0007C4.9972 11.5526 5.44467 12.0001 5.99664 12.0001C6.54862 12.0001 6.99608 11.5526 6.99608 11.0007V7.00006H10.9933C11.5456 7.00006 11.9933 6.55234 11.9933 6.00005C11.9933 5.44776 11.5456 5.00004 10.9933 5.00004H6.99608V0.99944C6.99608 0.447465 6.54862 0 5.99664 0Z" fill="#DF1525"/>
</svg>
