<svg width="22" height="24" viewBox="0 0 22 24" fill="none" xmlns="http://www.w3.org/2000/svg">
<g clip-path="url(#clip0_182_2195)">
<path d="M11 1L19.7083 6.5V17.5L11 23L2.29163 17.5V6.5L11 1ZM11 3.311L4.12496 7.653V16.347L11 20.689L17.875 16.347V7.653L11 3.311ZM11 16C10.0275 16 9.09487 15.5786 8.40723 14.8284C7.7196 14.0783 7.33329 13.0609 7.33329 12C7.33329 10.9391 7.7196 9.92172 8.40723 9.17157C9.09487 8.42143 10.0275 8 11 8C11.9724 8 12.9051 8.42143 13.5927 9.17157C14.2803 9.92172 14.6666 10.9391 14.6666 12C14.6666 13.0609 14.2803 14.0783 13.5927 14.8284C12.9051 15.5786 11.9724 16 11 16ZM11 14C11.4862 14 11.9525 13.7893 12.2963 13.4142C12.6401 13.0391 12.8333 12.5304 12.8333 12C12.8333 11.4696 12.6401 10.9609 12.2963 10.5858C11.9525 10.2107 11.4862 10 11 10C10.5137 10 10.0474 10.2107 9.7036 10.5858C9.35978 10.9609 9.16663 11.4696 9.16663 12C9.16663 12.5304 9.35978 13.0391 9.7036 13.4142C10.0474 13.7893 10.5137 14 11 14Z" fill="#049C6B"/>
</g>
<defs>
<clipPath id="clip0_182_2195">
<rect width="22" height="24" fill="white"/>
</clipPath>
</defs>
</svg>
