<svg width="22" height="24" viewBox="0 0 22 24" fill="none" xmlns="http://www.w3.org/2000/svg">
<g clip-path="url(#clip0_182_2200)">
<path d="M20.1667 20H1.83337V18H2.75004V11.031C2.75004 6.043 6.44421 2 11 2C15.5559 2 19.25 6.043 19.25 11.031V18H20.1667V20ZM4.58337 18H17.4167V11.031C17.4167 7.148 14.5439 4 11 4C7.45621 4 4.58337 7.148 4.58337 11.031V18ZM8.70837 21H13.2917C13.2917 21.663 13.0503 22.2989 12.6205 22.7678C12.1907 23.2366 11.6078 23.5 11 23.5C10.3923 23.5 9.80936 23.2366 9.37959 22.7678C8.94982 22.2989 8.70837 21.663 8.70837 21Z" fill="#1573FE"/>
</g>
<defs>
<clipPath id="clip0_182_2200">
<rect width="22" height="24" fill="white"/>
</clipPath>
</defs>
</svg>
